<svg width="183" height="47" viewBox="0 0 183 47" fill="none" xmlns="http://www.w3.org/2000/svg">
    <path d="M32.3976 13.6316C30.4986 15.1116 28.2325 16.342 25.9778 17.1812C25.8573 16.7163 25.7425 16.2456 25.6507 15.775C24.9221 11.9759 25.0885 7.03704 27.4235 3.78229C29.0758 1.48014 31.8584 0.0568922 34.7212 0.00585938C35.3121 0.737329 35.8055 1.56519 36.1612 2.43842C38.0717 7.09942 36.1096 10.7284 32.3976 13.6316Z"
          fill="white"/>
    <path d="M28.3321 41.2506C27.569 43.91 25.2111 45.9853 22.681 47.0003C22.5892 47.0003 22.0556 46.5807 21.9409 46.49C20.9254 45.6961 19.9788 44.6131 19.3534 43.4904C16.4275 38.1943 20.0132 31.6338 23.8342 27.7836C23.9317 27.7666 24.2759 28.2769 24.362 28.3847C26.9035 31.7642 29.5656 36.9639 28.3321 41.2449V41.2506Z"
          fill="white"/>
    <path d="M47.5434 17.8837C44.4339 24.8468 36.8379 24.5576 30.7049 21.8983C30.4352 21.7792 28.8976 21.0761 28.8173 20.923C28.7657 20.8209 28.9149 20.6451 28.9722 20.5657C31.1581 17.4357 35.9544 13.4949 39.9073 13.1717C42.7873 12.9392 45.4436 14.3397 47.3197 16.4151C47.4057 16.5115 47.7557 16.8971 47.7901 16.9708C47.8934 17.2089 47.6467 17.6399 47.5377 17.8837H47.5434Z"
          fill="white"/>
    <path d="M43.5041 36.5176C41.5764 37.4985 39.1094 37.8898 36.9809 37.4078C32.8846 36.4779 29.9242 32.5087 28.3178 28.9023C28.1572 28.5451 27.1245 26.0218 27.2966 25.8574L30.0791 25.6306C34.818 25.4888 40.7445 26.2543 42.8386 31.1138C43.5672 32.8035 43.7393 34.7031 43.5098 36.5232L43.5041 36.5176Z"
          fill="white"/>
    <path d="M19.8837 27.9726C18.3404 31.9362 15.1161 36.6085 10.6067 37.4591C8.53556 37.8503 6.21775 37.4761 4.34744 36.5518C4.04911 34.6919 4.2958 32.6336 5.07032 30.9098C6.81442 27.0314 11.3525 25.8406 15.2997 25.6535C17.0151 25.5741 18.7362 25.6648 20.4344 25.8746C20.5033 25.8916 20.5262 25.937 20.532 26.005C20.5492 26.2602 20.0156 27.6437 19.8837 27.9783V27.9726Z"
          fill="white"/>
    <path d="M19.0302 20.9738C17.4065 21.8074 15.7198 22.5388 13.947 23.0038C11.0096 23.775 7.60747 23.9621 4.79053 22.6693C2.47272 21.6089 0.728619 19.4542 0 17.05C2.22602 14.1921 5.5421 12.5364 9.23683 13.3983C12.6963 14.2035 16.1444 17.2711 18.3474 19.9305C18.4909 20.1006 18.9326 20.5996 19.0072 20.7527C19.0416 20.8207 19.0588 20.8945 19.0302 20.9738Z"
          fill="white"/>
    <path d="M22.5646 15.593C22.5245 15.8085 22.2606 17.2147 22.1573 17.2374C18.6634 15.627 14.5843 13.5063 12.5246 10.1439C10.4764 6.80404 11.1764 3.03329 13.454 0.00534228C14.2572 -0.0343499 15.0949 0.15277 15.8694 0.379583C22.5532 2.31883 23.6318 9.67322 22.5704 15.593H22.5646Z"
          fill="white"/>
    <path d="M113.928 23.0496C113.36 18.2752 106.607 17.5381 103.263 19.7098C101.668 20.7475 101.18 22.4769 103.228 23.3104C103.389 23.2934 103.567 22.9305 103.687 22.8001C104.519 21.9099 105.449 21.4336 106.676 21.2748C108.363 21.0593 110.509 21.615 110.71 23.5713C110.744 23.9115 110.652 24.4332 110.744 24.728C110.841 25.0399 111.467 25.176 111.524 25.5446C111.513 25.6013 111.381 25.4992 111.358 25.4822C110.732 25.0172 110.302 24.6316 109.556 24.3141C106.544 23.0269 101.765 24.2347 101.163 27.8297C100.233 33.3639 107.175 35.2408 110.841 32.1221C110.968 32.0144 111.295 31.6231 111.386 31.5834C111.455 31.5551 111.501 31.6004 111.473 31.6685C111.381 31.8953 110.841 32.2469 110.841 32.4623V33.4263C110.841 33.4433 110.916 33.5113 110.899 33.568H111.903C112.046 33.568 112.683 33.3752 112.849 33.3129C113.704 32.9727 113.911 32.3546 113.997 31.4984C113.819 28.7766 114.261 25.7317 113.94 23.0496H113.928ZM104.376 28.1245C104.668 26.9168 105.965 26.4234 107.089 26.3271C108.443 26.2136 110.325 26.6106 110.692 28.1245C111.662 32.1391 103.395 32.1958 104.376 28.1245Z"
          fill="white"/>
    <path d="M173.566 27.1609H181.828C182.109 27.1609 182.654 26.6506 182.763 26.3841C182.964 25.8908 182.935 24.15 182.889 23.5603C182.688 20.6287 179.837 18.7632 177.06 18.5987C174.065 18.423 170.434 20.3962 170.204 23.617C170.101 25.0402 170.112 27.2403 170.204 28.6692C170.525 33.6024 177.444 34.7648 180.99 32.4626C183.4 30.8976 182.992 28.1135 179.871 28.4651C179.676 29.1909 179.556 29.8146 178.93 30.3136C178.075 30.9997 176.205 31.0791 175.201 30.7105C174.123 30.3136 173.503 29.395 173.417 28.2723C173.4 28.0738 173.354 27.2233 173.56 27.1666L173.566 27.1609ZM173.423 23.6737C173.423 23.5773 173.578 23.1407 173.623 23.0216C174.547 20.7081 178.368 20.6004 179.515 22.7551C179.613 22.9365 179.848 23.5489 179.848 23.7304V24.7227L173.423 24.6943V23.6737Z"
          fill="white"/>
    <path d="M87.9324 23.3382C87.5881 19.7885 83.4459 18.4107 80.3536 18.6715C77.9899 18.87 75.368 20.3783 74.8402 22.8052C74.5533 24.1093 74.5648 27.5002 74.6968 28.8837C75.2647 34.985 87.5365 35.603 87.9439 28.2657C88.0184 26.8878 88.0701 24.6877 87.9381 23.3382H87.9324ZM84.6106 27.0182C84.5647 28.277 84.7655 29.2296 83.6352 30.1369C82.5739 30.9931 80.0897 30.9931 79.0168 30.1652C77.9153 29.3203 78.0071 28.3564 78.0128 27.1373C78.0128 26.1166 77.921 24.8918 78.0128 23.8995C78.1104 22.7995 79.1144 21.6541 80.2388 21.5067C81.0478 21.3989 82.5165 21.4273 83.2279 21.8072C85.1269 22.8278 84.6679 25.2377 84.6106 27.0182Z"
          fill="white"/>
    <path d="M76.7512 13.0975V13.9764C76.7512 14.2939 76.2922 15.1388 76.0628 15.3939C75.7759 15.7171 75.0301 16.1594 74.5998 16.1594H69.7519C69.7175 19.8565 69.7978 23.5932 69.7519 27.3016C69.7519 27.466 69.6888 27.6021 69.6888 27.7495C69.6716 28.8723 69.8265 30.4316 69.6888 31.4919C69.5511 32.5296 68.2143 33.5673 67.1989 33.5673H66.1948V16.3579C66.1948 16.3352 66.0629 16.1594 66.0514 16.1594H59.1668L59.0922 16.063C59.0808 15.1218 59.2873 14.1351 60.0962 13.5568C60.6814 13.1372 61.3527 13.1882 62.0354 13.0918H76.7512V13.0975Z"
          fill="white"/>
    <path d="M149.758 33.3409H137.193C136.229 33.3409 135.484 32.394 135.443 31.4981L135.495 15.0542C135.432 13.9088 136.889 12.8711 137.933 12.8711H138.995V30.1939L139.081 30.2789H147.801C148.541 30.2789 149.385 31.1749 149.626 31.8213C149.786 32.2522 149.958 32.927 149.752 33.3409H149.758Z"
          fill="white"/>
    <path d="M169.827 15.6382C169.551 16.5057 169.11 16.0407 168.513 15.882C167.538 15.6211 166.092 15.4737 165.61 16.5738C165.426 16.999 165.346 17.9346 165.386 18.3996C165.398 18.5584 165.421 18.7625 165.53 18.8816H169.115V19.7038C169.115 19.8398 168.874 20.4296 168.782 20.5656C168.507 20.9853 167.876 21.3765 167.365 21.3765H165.443C165.432 22.0853 165.461 22.7941 165.443 23.5029C165.398 25.4421 165.363 27.3927 165.38 29.3433C165.392 30.3923 165.73 32.1161 164.864 32.9099C164.571 33.1821 163.682 33.5677 163.292 33.5677H162.116V21.5183C162.116 21.5013 162.041 21.4332 162.059 21.3765H159.764V20.4409C159.764 20.0497 160.171 19.3012 160.515 19.08C161.009 18.7682 161.525 18.9553 162.036 18.8249C162.139 17.9176 162.036 16.9763 162.248 16.0861C162.839 13.6195 165.168 12.5535 167.589 12.871C169.041 13.0638 170.326 14.0391 169.821 15.6325L169.827 15.6382Z"
          fill="white"/>
    <path d="M97.2552 33.5624C94.4612 33.9707 92.2065 32.4908 92.0114 29.6329C91.8852 27.7957 91.9942 25.7998 92.0114 23.9626C92.0229 23.2652 92.0917 22.2332 92.0114 21.5754C92 21.4904 92.0057 21.428 91.9254 21.3769H89.1715C89.0396 21.2409 89.0683 20.912 89.0855 20.7249C89.1486 19.9083 89.6477 19.0521 90.5198 18.9104C90.9386 18.8423 91.4377 18.9557 91.8106 18.882C91.8852 18.8707 91.9483 18.8423 91.9827 18.7686C92.2122 16.9314 91.2885 15.0149 93.6752 14.4308C93.8072 14.3968 94.2432 14.2891 94.335 14.2891H95.1956L95.2816 14.3741V18.797L95.3677 18.882H99.1255V19.7042C99.1255 19.8403 98.8845 20.43 98.7927 20.5661C98.4944 21.0197 97.8691 21.3769 97.3183 21.3769H95.339C95.4136 23.6337 95.207 25.8962 95.2816 28.153C95.2931 28.5556 95.2988 29.1906 95.3447 29.5649C95.4709 30.5175 96.4864 30.784 97.3183 30.733C97.9781 30.6876 98.5862 30.3814 99.2001 30.2283C100.462 31.9351 99.0222 33.3016 97.2552 33.5624Z"
          fill="white"/>
    <path d="M122.901 33.5621C120.904 33.7662 118.885 33.2842 117.921 31.4073C117.244 30.0862 117.462 28.8387 117.427 27.4154C117.347 23.6617 117.393 19.8909 117.37 16.1315C117.364 15.1789 117.123 14.2206 117.967 13.4948C118.3 13.2113 119.149 12.8711 119.573 12.8711H120.692V29.2866C120.692 29.366 120.847 29.8367 120.893 29.9387C121.312 30.8516 122.734 30.8063 123.572 30.6021C124.335 30.415 124.8 29.8367 125.155 30.8857C125.649 32.3429 124.232 33.4203 122.895 33.5621H122.901Z"
          fill="white"/>
    <path d="M156.441 18.7961V32.0079C156.441 32.0702 156.108 32.7167 156.039 32.8017C155.632 33.3234 154.53 33.5786 153.888 33.6239C153.664 33.6409 153.28 33.6749 153.113 33.5389V20.2703C153.113 19.9811 153.589 19.3517 153.842 19.176C154.146 18.9605 155.081 18.6543 155.437 18.6543H156.383C156.366 18.711 156.441 18.779 156.441 18.7961Z"
          fill="white"/>
    <path d="M155.655 16.8863C152.367 18.026 151.163 13.2119 154.479 12.832C157.192 12.5201 158.082 16.0414 155.655 16.8863Z"
          fill="white"/>
</svg>
